<mxfile host="app.diagrams.net" modified="2022-01-12T23:28:41.035Z" agent="5.0 (X11)" etag="of09eFrcZlVECQaXWhrv" version="16.2.6" type="github">
  <diagram id="C5RBs43oDa-KdzZeNtuy" name="Page-1">
    <mxGraphModel dx="1422" dy="755" grid="1" gridSize="10" guides="1" tooltips="1" connect="1" arrows="1" fold="1" page="1" pageScale="1" pageWidth="827" pageHeight="1169" math="0" shadow="0">
      <root>
        <mxCell id="WIyWlLk6GJQsqaUBKTNV-0" />
        <mxCell id="WIyWlLk6GJQsqaUBKTNV-1" parent="WIyWlLk6GJQsqaUBKTNV-0" />
        <mxCell id="GJydlYlomGlpnoPxr9ow-12" style="edgeStyle=orthogonalEdgeStyle;rounded=0;orthogonalLoop=1;jettySize=auto;html=1;exitX=0.5;exitY=1;exitDx=0;exitDy=0;entryX=0.5;entryY=0;entryDx=0;entryDy=0;" edge="1" parent="WIyWlLk6GJQsqaUBKTNV-1" source="WIyWlLk6GJQsqaUBKTNV-3" target="GJydlYlomGlpnoPxr9ow-10">
          <mxGeometry relative="1" as="geometry" />
        </mxCell>
        <mxCell id="WIyWlLk6GJQsqaUBKTNV-3" value="START GAME" style="rounded=1;whiteSpace=wrap;html=1;fontSize=12;glass=0;strokeWidth=1;shadow=0;" parent="WIyWlLk6GJQsqaUBKTNV-1" vertex="1">
          <mxGeometry x="360" y="40" width="120" height="40" as="geometry" />
        </mxCell>
        <mxCell id="GJydlYlomGlpnoPxr9ow-14" style="edgeStyle=orthogonalEdgeStyle;rounded=0;orthogonalLoop=1;jettySize=auto;html=1;exitX=0.5;exitY=1;exitDx=0;exitDy=0;entryX=0.5;entryY=0;entryDx=0;entryDy=0;" edge="1" parent="WIyWlLk6GJQsqaUBKTNV-1" source="GJydlYlomGlpnoPxr9ow-10" target="GJydlYlomGlpnoPxr9ow-13">
          <mxGeometry relative="1" as="geometry" />
        </mxCell>
        <mxCell id="GJydlYlomGlpnoPxr9ow-10" value="Pick Word" style="rounded=1;whiteSpace=wrap;html=1;" vertex="1" parent="WIyWlLk6GJQsqaUBKTNV-1">
          <mxGeometry x="360" y="110" width="120" height="30" as="geometry" />
        </mxCell>
        <mxCell id="GJydlYlomGlpnoPxr9ow-17" style="edgeStyle=orthogonalEdgeStyle;rounded=0;orthogonalLoop=1;jettySize=auto;html=1;exitX=0.5;exitY=1;exitDx=0;exitDy=0;entryX=0.5;entryY=0;entryDx=0;entryDy=0;" edge="1" parent="WIyWlLk6GJQsqaUBKTNV-1" source="GJydlYlomGlpnoPxr9ow-13" target="GJydlYlomGlpnoPxr9ow-15">
          <mxGeometry relative="1" as="geometry" />
        </mxCell>
        <mxCell id="GJydlYlomGlpnoPxr9ow-13" value="Create required blanks" style="rounded=1;whiteSpace=wrap;html=1;" vertex="1" parent="WIyWlLk6GJQsqaUBKTNV-1">
          <mxGeometry x="360" y="160" width="120" height="40" as="geometry" />
        </mxCell>
        <mxCell id="GJydlYlomGlpnoPxr9ow-30" style="edgeStyle=orthogonalEdgeStyle;rounded=0;orthogonalLoop=1;jettySize=auto;html=1;exitX=0.5;exitY=1;exitDx=0;exitDy=0;entryX=0.5;entryY=0;entryDx=0;entryDy=0;" edge="1" parent="WIyWlLk6GJQsqaUBKTNV-1" source="GJydlYlomGlpnoPxr9ow-15" target="GJydlYlomGlpnoPxr9ow-19">
          <mxGeometry relative="1" as="geometry" />
        </mxCell>
        <mxCell id="GJydlYlomGlpnoPxr9ow-15" value="User Input Guess" style="rounded=1;whiteSpace=wrap;html=1;" vertex="1" parent="WIyWlLk6GJQsqaUBKTNV-1">
          <mxGeometry x="360" y="230" width="120" height="30" as="geometry" />
        </mxCell>
        <mxCell id="GJydlYlomGlpnoPxr9ow-22" style="edgeStyle=orthogonalEdgeStyle;rounded=0;orthogonalLoop=1;jettySize=auto;html=1;exitX=0;exitY=0.5;exitDx=0;exitDy=0;entryX=0.5;entryY=0;entryDx=0;entryDy=0;" edge="1" parent="WIyWlLk6GJQsqaUBKTNV-1" source="GJydlYlomGlpnoPxr9ow-19" target="GJydlYlomGlpnoPxr9ow-20">
          <mxGeometry relative="1" as="geometry" />
        </mxCell>
        <mxCell id="GJydlYlomGlpnoPxr9ow-23" style="edgeStyle=orthogonalEdgeStyle;rounded=0;orthogonalLoop=1;jettySize=auto;html=1;exitX=1;exitY=0.5;exitDx=0;exitDy=0;entryX=0.5;entryY=0;entryDx=0;entryDy=0;" edge="1" parent="WIyWlLk6GJQsqaUBKTNV-1" source="GJydlYlomGlpnoPxr9ow-19" target="GJydlYlomGlpnoPxr9ow-21">
          <mxGeometry relative="1" as="geometry" />
        </mxCell>
        <mxCell id="GJydlYlomGlpnoPxr9ow-19" value="Is it correct?" style="rhombus;whiteSpace=wrap;html=1;" vertex="1" parent="WIyWlLk6GJQsqaUBKTNV-1">
          <mxGeometry x="350" y="290" width="140" height="80" as="geometry" />
        </mxCell>
        <mxCell id="GJydlYlomGlpnoPxr9ow-28" style="edgeStyle=orthogonalEdgeStyle;rounded=0;orthogonalLoop=1;jettySize=auto;html=1;exitX=0.5;exitY=1;exitDx=0;exitDy=0;" edge="1" parent="WIyWlLk6GJQsqaUBKTNV-1" source="GJydlYlomGlpnoPxr9ow-20" target="GJydlYlomGlpnoPxr9ow-26">
          <mxGeometry relative="1" as="geometry" />
        </mxCell>
        <mxCell id="GJydlYlomGlpnoPxr9ow-20" value="Draw Body Part" style="rounded=1;whiteSpace=wrap;html=1;" vertex="1" parent="WIyWlLk6GJQsqaUBKTNV-1">
          <mxGeometry x="190" y="360" width="120" height="60" as="geometry" />
        </mxCell>
        <mxCell id="GJydlYlomGlpnoPxr9ow-29" style="edgeStyle=orthogonalEdgeStyle;rounded=0;orthogonalLoop=1;jettySize=auto;html=1;exitX=0.5;exitY=1;exitDx=0;exitDy=0;" edge="1" parent="WIyWlLk6GJQsqaUBKTNV-1" source="GJydlYlomGlpnoPxr9ow-21" target="GJydlYlomGlpnoPxr9ow-27">
          <mxGeometry relative="1" as="geometry" />
        </mxCell>
        <mxCell id="GJydlYlomGlpnoPxr9ow-21" value="Add Letter to Blank" style="rounded=1;whiteSpace=wrap;html=1;" vertex="1" parent="WIyWlLk6GJQsqaUBKTNV-1">
          <mxGeometry x="530" y="360" width="120" height="60" as="geometry" />
        </mxCell>
        <mxCell id="GJydlYlomGlpnoPxr9ow-24" value="Text" style="text;html=1;resizable=0;autosize=1;align=center;verticalAlign=middle;points=[];fillColor=none;strokeColor=none;rounded=0;" vertex="1" parent="WIyWlLk6GJQsqaUBKTNV-1">
          <mxGeometry x="270" y="300" width="40" height="20" as="geometry" />
        </mxCell>
        <mxCell id="GJydlYlomGlpnoPxr9ow-25" value="Text" style="text;html=1;resizable=0;autosize=1;align=center;verticalAlign=middle;points=[];fillColor=none;strokeColor=none;rounded=0;" vertex="1" parent="WIyWlLk6GJQsqaUBKTNV-1">
          <mxGeometry x="530" y="300" width="40" height="20" as="geometry" />
        </mxCell>
        <mxCell id="GJydlYlomGlpnoPxr9ow-31" style="edgeStyle=orthogonalEdgeStyle;rounded=0;orthogonalLoop=1;jettySize=auto;html=1;exitX=0;exitY=0.5;exitDx=0;exitDy=0;entryX=0;entryY=0.5;entryDx=0;entryDy=0;" edge="1" parent="WIyWlLk6GJQsqaUBKTNV-1" source="GJydlYlomGlpnoPxr9ow-26" target="GJydlYlomGlpnoPxr9ow-15">
          <mxGeometry relative="1" as="geometry">
            <Array as="points">
              <mxPoint x="130" y="490" />
              <mxPoint x="130" y="245" />
            </Array>
          </mxGeometry>
        </mxCell>
        <mxCell id="GJydlYlomGlpnoPxr9ow-34" style="edgeStyle=orthogonalEdgeStyle;rounded=0;orthogonalLoop=1;jettySize=auto;html=1;exitX=0.5;exitY=1;exitDx=0;exitDy=0;entryX=0;entryY=0.5;entryDx=0;entryDy=0;" edge="1" parent="WIyWlLk6GJQsqaUBKTNV-1" source="GJydlYlomGlpnoPxr9ow-26" target="GJydlYlomGlpnoPxr9ow-33">
          <mxGeometry relative="1" as="geometry" />
        </mxCell>
        <mxCell id="GJydlYlomGlpnoPxr9ow-26" value="Max Lives?" style="rhombus;whiteSpace=wrap;html=1;" vertex="1" parent="WIyWlLk6GJQsqaUBKTNV-1">
          <mxGeometry x="210" y="450" width="80" height="80" as="geometry" />
        </mxCell>
        <mxCell id="GJydlYlomGlpnoPxr9ow-35" style="edgeStyle=orthogonalEdgeStyle;rounded=0;orthogonalLoop=1;jettySize=auto;html=1;exitX=0.5;exitY=1;exitDx=0;exitDy=0;entryX=1;entryY=0.5;entryDx=0;entryDy=0;" edge="1" parent="WIyWlLk6GJQsqaUBKTNV-1" source="GJydlYlomGlpnoPxr9ow-27" target="GJydlYlomGlpnoPxr9ow-33">
          <mxGeometry relative="1" as="geometry" />
        </mxCell>
        <mxCell id="GJydlYlomGlpnoPxr9ow-39" style="edgeStyle=orthogonalEdgeStyle;rounded=0;orthogonalLoop=1;jettySize=auto;html=1;exitX=1;exitY=0.5;exitDx=0;exitDy=0;entryX=1;entryY=0.5;entryDx=0;entryDy=0;" edge="1" parent="WIyWlLk6GJQsqaUBKTNV-1" source="GJydlYlomGlpnoPxr9ow-27" target="GJydlYlomGlpnoPxr9ow-15">
          <mxGeometry relative="1" as="geometry">
            <Array as="points">
              <mxPoint x="710" y="490" />
              <mxPoint x="710" y="245" />
            </Array>
          </mxGeometry>
        </mxCell>
        <mxCell id="GJydlYlomGlpnoPxr9ow-27" value="All Correct?" style="rhombus;whiteSpace=wrap;html=1;" vertex="1" parent="WIyWlLk6GJQsqaUBKTNV-1">
          <mxGeometry x="550" y="450" width="80" height="80" as="geometry" />
        </mxCell>
        <mxCell id="GJydlYlomGlpnoPxr9ow-33" value="Game Over" style="rounded=1;whiteSpace=wrap;html=1;" vertex="1" parent="WIyWlLk6GJQsqaUBKTNV-1">
          <mxGeometry x="360" y="585" width="120" height="60" as="geometry" />
        </mxCell>
        <mxCell id="GJydlYlomGlpnoPxr9ow-36" value="&lt;div&gt;No&lt;/div&gt;" style="text;html=1;resizable=0;autosize=1;align=center;verticalAlign=middle;points=[];fillColor=none;strokeColor=none;rounded=0;" vertex="1" parent="WIyWlLk6GJQsqaUBKTNV-1">
          <mxGeometry x="165" y="470" width="30" height="20" as="geometry" />
        </mxCell>
        <mxCell id="GJydlYlomGlpnoPxr9ow-37" value="No" style="text;html=1;resizable=0;autosize=1;align=center;verticalAlign=middle;points=[];fillColor=none;strokeColor=none;rounded=0;" vertex="1" parent="WIyWlLk6GJQsqaUBKTNV-1">
          <mxGeometry x="645" y="470" width="30" height="20" as="geometry" />
        </mxCell>
        <mxCell id="GJydlYlomGlpnoPxr9ow-40" value="Yes" style="text;html=1;resizable=0;autosize=1;align=center;verticalAlign=middle;points=[];fillColor=none;strokeColor=none;rounded=0;" vertex="1" parent="WIyWlLk6GJQsqaUBKTNV-1">
          <mxGeometry x="260" y="530" width="40" height="20" as="geometry" />
        </mxCell>
        <mxCell id="GJydlYlomGlpnoPxr9ow-41" value="Yes" style="text;html=1;resizable=0;autosize=1;align=center;verticalAlign=middle;points=[];fillColor=none;strokeColor=none;rounded=0;" vertex="1" parent="WIyWlLk6GJQsqaUBKTNV-1">
          <mxGeometry x="540" y="530" width="40" height="20" as="geometry" />
        </mxCell>
      </root>
    </mxGraphModel>
  </diagram>
</mxfile>
